<svg width="356" height="338" viewBox="0 0 356 338" fill="none" xmlns="http://www.w3.org/2000/svg">
<path d="M186 283.212C220.224 273.841 232.271 261.544 238 224.212L221.5 233.212C211.299 237.257 205.431 239.158 194.5 241.712C182.191 243.254 175.248 243.24 163 241.712C152.352 240.373 146.524 239.051 136.5 235.212C127.547 230.25 122.445 227.067 113 219.712C103.374 211.884 98.3613 206.42 90.5 193.712C83.5423 182.92 80.5426 176.354 78.5 162.712H120.5C123.697 172.227 126.269 176.442 132 182.212C140.01 190.661 145.013 194.176 154.5 198.212C164.643 201.92 170.604 202.832 182 202.212C193.138 201.187 199.047 199.429 209 193.712C215.131 189.457 219.248 186.987 221.5 182.212C216.121 174.823 211.489 171.215 199 166.212C188.296 162.523 181.162 161.676 167 161.712C151.27 159.496 142.715 156.933 128 149.212C114.006 141.279 106.781 135.136 95.5 120.212C84.2117 103.951 79.412 94.0789 76.5004 73.7117V40.7117C65.1414 52.0491 60.3231 59.1615 53.5004 72.7117C40.1419 96.2893 37.8427 109.547 36.0004 133.212C34.3236 165.133 38.9564 179.571 49.0004 204.212C59.2041 223.89 65.9249 232.4 79.0004 244.712C100.643 263.95 111.5 270.712 136.5 278.212C156 284.062 166.338 285.341 186 283.212Z" fill="#DD4659"/>
<path d="M124 31.2117C117.931 41.7578 116.483 48.1708 116.5 60.2117L130 51.2117C135.321 48.454 138.541 47.0969 145 45.2117C152.33 42.7655 156.483 41.8386 164 40.7117C173.887 39.7934 179.219 39.8751 188.5 40.7117L205.5 44.2117C213.087 46.3789 216.878 47.9343 223 51.2117C230.762 55.279 234.782 58.0112 242 63.7117C250.984 71.1141 255.371 75.9583 262 85.7117C266.207 92.7813 268.208 96.8568 271.5 104.212C274.18 111.219 275.252 115.049 276 121.712H234.5C232.925 117.222 231.647 114.47 228 108.712C224.699 103.743 222.571 101.052 217.5 96.7117C213.637 92.8398 211.117 90.7105 204 87.2117C195.472 82.9792 190.38 81.5449 180.5 81.2117C167.888 81.092 162.009 81.9343 154.5 85.7117C143.873 89.9377 138.976 93.5026 132 101.712L139.5 108.712C146.849 114.109 151.188 116.52 159.5 119.212C166.372 120.911 170.202 121.421 177 121.712C187.308 121.942 192.866 122.668 202.5 124.712C213.739 127.435 219.714 130.074 230 136.212C239.868 142.246 244.993 146.701 253.5 156.212C262.832 166.014 266.379 172.27 271 184.212C271 184.212 276 194.712 278.5 210.712C281 226.712 278.5 241.712 278.5 241.712C284.487 236.159 287.453 231.362 292.5 224.212C297.405 217.262 299.977 214.321 304 205.712C309.015 195.879 311.506 189.972 315 178.212C317.291 169.671 318.5 155.212 318.5 153.712C318.5 152.212 319.749 140.831 318.5 127.712C318.15 122.331 317.535 119.126 316 113.212C312.85 98.8456 310.289 90.7293 303 76.2117C296.646 63.274 291.796 56.4695 281 45.2117C271.426 35.0344 265.449 29.6852 253 21.2117C243.681 16.0582 238.622 11.4221 228 8.21173C215.5 3.21172 209.7 2.7343 195 1.21174C181.273 -0.74469 173.71 -0.392809 160 2.71174C141.488 9.3859 133.539 15.646 124 31.2117Z" fill="#DD4659"/>
<path d="M8.23695 231.716L21.0625 217.787L22.4187 220.008L12.1593 231.002L26.6196 226.889L27.9758 229.11L17.7097 240.093L32.1766 235.99L33.5328 238.212L15.2825 243.256L13.794 240.818L23.4111 230.38L9.72545 234.154L8.23695 231.716Z" fill="#DD4659"/>
<path d="M34.7485 259.909L29.1014 252.965L26.7868 254.847L32.4339 261.791L30.4936 263.369L24.8465 256.425C24.6329 256.163 24.4792 255.873 24.3855 255.557C24.2983 255.235 24.268 254.916 24.2945 254.6C24.333 254.285 24.4277 253.979 24.5786 253.681C24.7349 253.391 24.9476 253.136 25.2169 252.917L31.8258 247.542C32.095 247.323 32.3879 247.167 32.7043 247.073C33.0262 246.986 33.3419 246.958 33.6514 246.99C33.9729 247.023 34.279 247.118 34.5697 247.274C34.867 247.425 35.1225 247.632 35.3361 247.895L39.4052 252.898C39.6241 253.167 39.7772 253.463 39.8644 253.785C39.9581 254.101 39.9858 254.417 39.9473 254.732C39.9208 255.048 39.8294 255.351 39.6731 255.642C39.5221 255.939 39.3121 256.197 39.0428 256.416L34.7485 259.909ZM33.3958 249.473L31.0418 251.387L35.1109 256.39L37.4649 254.476L33.3958 249.473Z" fill="#DD4659"/>
<path d="M58.3719 266.119L68.4605 274.734L66.7704 276.713L58.6609 269.788L55.2808 273.746L62.2028 279.657L60.5127 281.636L53.5907 275.725L50.2187 279.674L58.3282 286.599L56.6381 288.578L46.5496 279.963L58.3719 266.119Z" fill="#DD4659"/>
<path d="M74.2804 301.063L72.2027 299.671L78.3362 290.516L72.5459 286.637L66.4124 295.791L64.3452 294.406L71.8707 283.174L73.9379 284.559L72.6095 286.542C72.8073 286.277 73.0425 286.063 73.3152 285.899C73.5925 285.728 73.8815 285.616 74.1821 285.563C74.4944 285.507 74.8066 285.513 75.1187 285.579C75.4354 285.639 75.7344 285.763 76.0157 285.951L79.7282 288.438C80.0165 288.631 80.2495 288.869 80.4273 289.151C80.6098 289.426 80.7288 289.72 80.7844 290.032C80.8518 290.342 80.8534 290.659 80.7893 290.983C80.7322 291.311 80.6071 291.62 80.4139 291.908L74.2804 301.063Z" fill="#DD4659"/>
<path d="M91.4555 307.835L92.9078 305.056L87.6533 302.31C87.3458 302.149 87.0864 301.942 86.8752 301.688C86.6678 301.427 86.5139 301.146 86.4133 300.845C86.3241 300.541 86.29 300.222 86.3111 299.89C86.3397 299.561 86.4344 299.242 86.5951 298.935L87.9299 296.381C88.0906 296.073 88.2978 295.814 88.5514 295.603C88.8125 295.395 89.0916 295.245 89.3885 295.152C89.6969 295.055 90.0155 295.021 90.3443 295.05C90.6771 295.071 90.9972 295.162 91.3048 295.323L98.3145 298.986L97.1561 301.202L90.1464 297.539L88.8117 300.093L94.0662 302.839C94.3737 303 94.6274 303.209 94.8272 303.466C95.0384 303.72 95.1924 304.001 95.2891 304.309C95.3897 304.61 95.4257 304.925 95.3971 305.254C95.376 305.586 95.2851 305.907 95.1244 306.214L93.672 308.993C93.5113 309.301 93.3004 309.558 93.0392 309.766C92.7856 309.977 92.5046 310.131 92.1962 310.227C91.8918 310.317 91.5732 310.351 91.2404 310.33C90.9191 310.305 90.6047 310.212 90.2971 310.051L82.8261 306.147L83.9844 303.931L91.4555 307.835Z" fill="#DD4659"/>
<path d="M106.064 302.614L108.381 303.521L104.367 313.783L110.858 316.322L114.872 306.059L117.201 306.97L112.277 319.562L109.947 318.651L110.78 316.523C110.642 316.805 110.455 317.05 110.22 317.258C109.984 317.466 109.721 317.626 109.431 317.74C109.152 317.849 108.857 317.907 108.546 317.912C108.235 317.918 107.93 317.862 107.63 317.745L103.456 316.112C103.141 315.989 102.865 315.813 102.627 315.584C102.393 315.347 102.209 315.084 102.077 314.796C101.955 314.503 101.886 314.19 101.871 313.857C101.864 313.527 101.924 313.2 102.05 312.877L106.064 302.614Z" fill="#DD4659"/>
<path d="M127.279 312.764L124.375 323.394L121.975 322.738L125.538 309.696L127.938 310.352L127.309 312.654C127.412 312.34 127.567 312.062 127.774 311.82C127.982 311.57 128.221 311.372 128.489 311.226C128.767 311.074 129.065 310.98 129.382 310.943C129.701 310.899 130.024 310.921 130.351 311.011L132.91 311.71C133.245 311.801 133.537 311.951 133.787 312.16C134.048 312.363 134.258 312.604 134.418 312.885C134.581 313.158 134.683 313.457 134.725 313.785C134.776 314.114 134.755 314.447 134.664 314.781L134.061 316.986L131.649 316.327L132.251 314.122L127.279 312.764Z" fill="#DD4659"/>
<path d="M152.741 323.815L143.909 322.362L143.425 325.306L152.256 326.759L151.85 329.227L143.019 327.773C142.685 327.718 142.377 327.604 142.097 327.429C141.819 327.246 141.585 327.027 141.395 326.773C141.215 326.512 141.083 326.22 140.999 325.897C140.923 325.576 140.913 325.244 140.969 324.902L142.353 316.496C142.409 316.154 142.525 315.842 142.699 315.562C142.882 315.284 143.1 315.054 143.353 314.872C143.616 314.684 143.908 314.552 144.229 314.476C144.552 314.392 144.88 314.377 145.214 314.432L151.578 315.48C151.92 315.536 152.231 315.656 152.509 315.839C152.789 316.013 153.019 316.231 153.199 316.493C153.389 316.747 153.522 317.035 153.598 317.356C153.682 317.679 153.696 318.011 153.639 318.353L152.741 323.815ZM144.808 316.9L144.315 319.894L150.679 320.941L151.172 317.947L144.808 316.9Z" fill="#DD4659"/>
<path d="M175.747 312.778L181.194 321.187L186.346 312.586L189.367 312.531L182.546 323.638L182.677 330.861L180.075 330.908L179.944 323.686L172.726 312.833L175.747 312.778Z" fill="#DD4659"/>
<path d="M209.024 325.98C209.07 326.324 209.046 326.656 208.952 326.976C208.866 327.294 208.725 327.582 208.529 327.839C208.339 328.086 208.103 328.297 207.818 328.471C207.542 328.636 207.231 328.741 206.887 328.787L200.23 329.671C199.894 329.715 199.567 329.695 199.248 329.609C198.928 329.515 198.641 329.374 198.385 329.186C198.137 328.988 197.926 328.747 197.751 328.463C197.585 328.178 197.48 327.863 197.434 327.519L196.312 319.075C196.267 318.731 196.287 318.4 196.372 318.081C196.467 317.761 196.608 317.477 196.797 317.23C196.994 316.974 197.235 316.762 197.52 316.596C197.804 316.422 198.114 316.313 198.45 316.268L205.107 315.384C205.451 315.338 205.779 315.363 206.09 315.458C206.409 315.544 206.692 315.686 206.941 315.883C207.196 316.071 207.407 316.308 207.573 316.593C207.747 316.877 207.857 317.192 207.903 317.536L209.024 325.98ZM198.779 318.747L199.9 327.192L206.558 326.308L205.436 317.863L198.779 318.747Z" fill="#DD4659"/>
<path d="M215.419 313.603L217.834 313.003L220.489 323.698L227.253 322.018L224.598 311.324L227.025 310.721L230.283 323.843L227.856 324.446L227.305 322.228C227.356 322.538 227.345 322.846 227.273 323.152C227.201 323.457 227.079 323.74 226.908 324.001C226.744 324.251 226.536 324.468 226.285 324.653C226.035 324.837 225.753 324.968 225.441 325.045L221.092 326.125C220.763 326.207 220.436 326.223 220.109 326.173C219.781 326.115 219.479 326.007 219.205 325.848C218.936 325.679 218.699 325.463 218.494 325.2C218.298 324.935 218.158 324.634 218.074 324.298L215.419 313.603Z" fill="#DD4659"/>
<path d="M238.598 309.625L242.371 319.978L240.033 320.83L235.403 308.127L237.741 307.275L238.559 309.518C238.461 309.202 238.427 308.885 238.456 308.569C238.482 308.244 238.562 307.945 238.696 307.67C238.835 307.385 239.024 307.137 239.262 306.924C239.496 306.703 239.773 306.535 240.091 306.419L242.584 305.51C242.91 305.391 243.235 305.345 243.56 305.371C243.89 305.386 244.201 305.461 244.494 305.598C244.784 305.726 245.041 305.912 245.264 306.155C245.496 306.395 245.671 306.677 245.79 307.003L246.573 309.15L244.223 310.007L243.44 307.86L238.598 309.625Z" fill="#DD4659"/>
<path d="M268.217 299.959C267.91 300.139 267.584 300.251 267.238 300.296C266.895 300.329 266.563 300.307 266.244 300.229C265.919 300.144 265.62 300 265.345 299.798C265.066 299.588 264.837 299.33 264.658 299.023L262.035 294.527C261.856 294.22 261.746 293.897 261.705 293.559C261.66 293.213 261.682 292.881 261.772 292.564C261.857 292.24 262.001 291.941 262.203 291.666C262.408 291.38 262.664 291.147 262.971 290.968L270.603 286.515C270.91 286.336 271.235 286.23 271.578 286.196C271.924 286.151 272.259 286.171 272.584 286.256C272.903 286.334 273.203 286.478 273.482 286.687C273.757 286.89 273.984 287.144 274.163 287.451L275.346 289.48L273.098 290.792L271.915 288.763L264.283 293.216L266.906 297.712L274.538 293.259C274.845 293.08 275.168 292.97 275.506 292.929C275.852 292.884 276.188 292.904 276.512 292.989C276.836 293.074 277.137 293.222 277.416 293.431C277.691 293.633 277.918 293.888 278.097 294.195L280.714 298.68C280.893 298.987 281.005 299.314 281.05 299.66C281.091 299.998 281.069 300.33 280.984 300.654C280.898 300.978 280.751 301.28 280.541 301.559C280.339 301.833 280.085 302.06 279.778 302.239L271.926 306.82C271.619 306.999 271.293 307.111 270.947 307.157C270.608 307.197 270.277 307.175 269.952 307.09C269.628 307.005 269.329 306.861 269.054 306.659C268.775 306.449 268.546 306.191 268.367 305.884L267.19 303.866L269.438 302.555L270.615 304.572L278.466 299.992L275.849 295.507L268.217 299.959Z" fill="#DD4659"/>
<path d="M286.684 290.691C286.476 290.413 286.333 290.118 286.257 289.805C286.182 289.48 286.164 289.16 286.202 288.845C286.248 288.525 286.354 288.223 286.521 287.939C286.683 287.647 286.9 287.4 287.17 287.196L292.325 283.321L290.754 281.231L284.229 286.136L282.726 284.137L289.251 279.231C289.528 279.023 289.829 278.881 290.154 278.806C290.474 278.725 290.79 278.709 291.104 278.76C291.418 278.798 291.718 278.901 292.003 279.068C292.294 279.23 292.544 279.45 292.753 279.728L299.375 288.536L297.375 290.038L296.002 288.212C296.17 288.478 296.281 288.765 296.333 289.075C296.386 289.385 296.385 289.693 296.329 289.999C296.276 290.294 296.169 290.575 296.01 290.842C295.852 291.11 295.644 291.34 295.387 291.534L292.221 293.914C291.95 294.117 291.655 294.26 291.335 294.342C291.01 294.416 290.69 294.435 290.375 294.396C290.062 294.346 289.76 294.239 289.468 294.077C289.184 293.91 288.937 293.688 288.729 293.41L286.684 290.691ZM290.718 291.915L295.873 288.039L293.828 285.32L288.673 289.195L290.718 291.915Z" fill="#DD4659"/>
<path d="M299.478 266.947L301.312 268.934L304.577 265.919L306.274 267.757L303.009 270.771L310.485 278.867L308.648 280.564L301.172 272.468L298.747 274.707L297.05 272.87L299.475 270.631L297.641 268.644C297.405 268.389 297.234 268.11 297.126 267.806C297.019 267.49 296.971 267.171 296.984 266.848C296.997 266.525 297.072 266.214 297.21 265.914C297.342 265.608 297.532 265.34 297.781 265.11L301.046 262.095L302.742 263.933L299.478 266.947Z" fill="#DD4659"/>
<path d="M323.337 257.465L317.407 264.169L319.642 266.146L325.571 259.442L327.445 261.099L321.515 267.803C321.291 268.056 321.03 268.255 320.733 268.399C320.43 268.538 320.12 268.62 319.804 268.645C319.487 268.659 319.169 268.615 318.851 268.515C318.539 268.408 318.253 268.239 317.993 268.01L311.612 262.366C311.353 262.136 311.15 261.872 311.006 261.575C310.868 261.272 310.789 260.965 310.77 260.655C310.75 260.332 310.794 260.015 310.901 259.702C311.001 259.384 311.163 259.099 311.388 258.845L315.66 254.014C315.89 253.754 316.157 253.555 316.46 253.417C316.757 253.273 317.064 253.194 317.381 253.18C317.697 253.155 318.012 253.196 318.324 253.302C318.642 253.403 318.931 253.568 319.191 253.798L323.337 257.465ZM313.261 260.502L315.534 262.512L319.807 257.682L317.534 255.671L313.261 260.502Z" fill="#DD4659"/>
<path d="M322.019 246.251L323.938 243.566L320.551 241.144L322.005 239.11L325.393 241.531L327.977 237.917L330.011 239.371L327.427 242.986L334.357 247.94L336.941 244.325L338.976 245.78L336.392 249.394C336.195 249.67 335.956 249.894 335.676 250.068C335.388 250.238 335.089 250.351 334.777 250.409C334.458 250.462 334.135 250.455 333.809 250.388C333.487 250.314 333.185 250.176 332.903 249.974L325.973 245.02L324.053 247.706L322.019 246.251Z" fill="#DD4659"/>
<path d="M349.44 239.557L345.05 233.784L331.737 232.281L333.042 230L343.08 231.194L336.963 223.146L338.268 220.865L350.676 237.397L349.44 239.557Z" fill="#DD4659"/>
</svg>
